Patient4_TMGait_0pt7_01_left_24_EMG.mot
version=1
nRows=16
nColumns=33
inDegrees=no
endheader
time	1LAddLong	2LGlutMax	3LGlutMed	4LIliopsoas	5LSemiMemb	6LBicFemLong	7LRecFem	8LVastMed	9LVastLat	10LGasMed	11LTibAnt	12lTibPost	13LPeroneusLong	14LSol	15LExtDigLong	16LFlexDigLong	17RAddLong	18RGlutMax	19RGlutMed	20RIliopsoas	21RSemiMemb	22RBicFemLong	23RRecFem	24RVastMed	25RVastLat	26RGasMed	27RTibAnt	28RTibPost	29RPeroneusLong	30RSol	31RExtDigLong	32RFlexDigLong
27.61	0.018005	0.1181	-0.036316	0.008392	-0.013123	0.001526	-0.049744	0.014648	0.27374	0.013428	0.034943	0.001526	0.022583	-0.048218	-0.22827	-0.004883	-0.029602	-0.019836	-0.58105	-0.1178	-0.054321	0.18768	0.5336	-0.31891	0.16144	0.084229	-0.085297	-0.001373	0.94116	0.3241	-0.003052	-0.013123
27.611	0.012054	0.12985	-0.062103	0.001984	-0.015411	-0.028992	-0.026093	0.01358	0.28595	-0.006561	0.057983	0.001221	0.055847	-0.02121	-0.012207	0.002899	-0.030212	0.068512	0.42602	-0.10757	-0.037842	0.13077	0.56335	-0.36316	-0.020599	0.061493	-0.3804	0.014954	0.19836	0.16007	-0.00412	-0.009308
27.612	0.014343	0.074615	-0.065155	0.009918	-0.005493	-0.040283	-0.060272	0.01236	0.28503	-0.014496	0.011749	0.003357	0.014954	0.026398	0.15503	-0.005493	-0.037689	0.060425	1.5034	-0.033875	-0.001678	0.084076	0.14511	-0.25406	-0.25101	0.06073	-0.56152	-0.010223	-0.15213	-0.098724	-0.005798	-0.00473
27.613	0.016479	0.017548	-0.075684	0.009003	-0.007172	-0.015411	-0.088959	0.009918	0.2829	-0.023804	-0.014343	0.003204	0.046082	0.048828	0.19867	-0.001221	-0.046082	0.028687	0.61935	0.1088	0.056763	-0.029144	-1.0785	-0.39307	-0.31128	0.039825	-0.55832	0.026245	-1.136	-0.19363	-0.002747	-0.001831
27.614	0.014954	-0.008392	-0.061493	0.005798	-0.016174	-0.025482	-0.057068	0.008698	0.27405	-0.011292	-0.078888	0.005035	0.063324	-0.022583	0.47638	0.010223	-0.042419	0.098114	-0.1622	0.071259	0.079041	-0.048676	-1.3147	0.097656	0.037842	0.024414	-0.34225	0.059967	-0.28381	-0.079041	-0.003662	-0.001068
27.615	0.019989	-0.032806	-0.055542	0.018768	-0.013733	-0.02121	-0.061951	0.004578	0.28275	0.002747	-0.009155	-0.001984	0.06958	0.070801	0.12894	0.007935	-0.037842	0.17807	-0.84473	-0.036774	0.05249	-0.053406	-0.60837	0.62592	0.084991	0.000916	0.0914	-0.012665	0.58609	0.04303	-0.000458	-0.007935
27.616	0.018005	-0.075073	-0.057983	0.013428	-0.015259	0.016937	-0.080414	0.012512	0.28168	0.016174	-0.068817	-0.001068	0.043793	0.085602	-0.1622	0.00885	-0.000916	0.21668	-0.87845	-0.071716	0.005188	-0.06958	-0.11978	0.35217	-0.17349	-0.0177	0.13672	-0.014954	0.29739	-0.058441	0.003357	-0.009918
27.617	0.015564	-0.088501	-0.058899	-0.010834	-0.015564	0.029602	-0.06485	0	0.27039	-0.011597	-0.17761	0.003662	0.080719	0.11627	-0.22553	0.007629	0.016022	0.19547	-0.64407	-0.10147	-0.010223	-0.13992	0.11963	0.25406	-0.16632	-0.005951	0.093689	-0.005951	-0.21133	-0.12207	0.002899	-0.004578
27.618	0.016327	-0.1004	-0.069885	-0.0177	-0.005341	0.01297	-0.072479	0.000153	0.26794	-0.022278	-0.095978	0.003815	0.060425	0.1503	0.17288	0.001526	0.010529	0.29327	0.067444	-0.031281	-0.014343	-0.21347	0.30792	0.2095	-0.069275	0.012665	0.24994	-0.00824	0.56198	-0.10727	-0.001831	0.003815
27.619	0.014801	-0.085754	-0.037842	-0.002899	-0.006714	0.01297	-0.094299	0.004578	0.26108	-0.061798	-0.009918	0.004883	0.12451	0.091858	0.005798	0.004883	0.010681	0.3093	0.77087	-0.011902	-0.035553	-0.29602	0.24643	0.059204	-0.081787	0.020294	0.53314	-0.010223	0.3981	-0.059052	-0.00351	-0.003052
27.62	0.013123	-0.074158	-0.035706	-0.00412	-0.004578	0.06012	-0.091248	0.00351	0.24658	-0.071869	0.027008	0.006104	0.18326	0.00824	-0.029297	0.00351	-0.010681	0.2124	0.44647	-0.065308	-0.02243	-0.33264	0.00473	0.050812	-0.046997	0.015717	0.25024	-0.014801	0.10559	-0.10788	-0.00061	0.00061
27.621	0.019226	-0.021667	-0.035248	-0.001678	-0.000153	0.067139	-0.074768	0.004883	0.2507	-0.038452	0.076904	0.003204	0.1152	-0.033417	-0.20218	0	-0.023499	0.25909	0.037537	-0.25162	-0.000763	-0.27145	-0.28854	0.009308	0.060272	0.00061	-0.18066	-0.025635	-0.61111	-0.011902	-0.002747	-0.000916
27.622	0.008698	0.009003	-0.02594	0.000763	-0.037079	0.021667	-0.087738	0.008392	0.23789	-0.00946	0.010681	-0.000458	0.082092	-0.084991	-0.25314	-0.007324	-0.010834	0.21088	-0.48294	-0.11047	0.006714	-0.2124	-0.13306	-0.057373	0.029297	0.024872	-0.36102	-0.018463	-0.83649	-0.15656	-0.003357	-0.006256
27.623	0.015869	0.061493	-0.030212	0.008545	-0.016785	0.008087	-0.06958	0.003052	0.23392	0.004425	-0.055084	-0.003204	0.070038	-0.12512	0.16922	-0.022736	0.001526	0.076599	0.02533	0.17853	-0.019073	-0.20493	0.006866	0.081635	0.12177	0.015869	0.091248	0.075226	-0.551	-0.24078	-0.003052	-0.002747
27.624	0.018463	0.10132	-0.026093	0.029602	-0.033875	-0.030518	-0.095215	-0.000305	0.22842	-0.031586	-0.020294	0.005188	0.10193	-0.042114	-0.02533	-0.003204	-0.001678	-0.01709	0.59235	0.20081	-0.020294	-0.13855	0.11383	0.082397	0.071564	0.001984	-0.069275	0.01297	0.64712	-0.20172	-0.000916	-0.01236
27.625	0.009613	0.14236	-0.016327	0.023346	-0.042877	-0.024872	-0.086365	-0.001221	0.22644	-0.047302	-0.006866	0.000763	0.068207	0.001373	0.11719	0.007629	0.009308	-0.056305	0.43961	0.11673	-0.02594	-0.074615	0.047302	0.061951	0.029907	0.005951	-0.30975	-0.01236	-0.010223	-0.085297	-0.001373	-0.009003
